<svg width="24" height="24" viewBox="0 0 24 24" fill="none" xmlns="http://www.w3.org/2000/svg">
<path fill-rule="evenodd" clip-rule="evenodd" d="M3.2998 12C3.2998 11.6134 3.61321 11.3 3.9998 11.3L13.9998 11.3C14.3864 11.3 14.6998 11.6134 14.6998 12C14.6998 12.3866 14.3864 12.7 13.9998 12.7L3.9998 12.7C3.61321 12.7 3.2998 12.3866 3.2998 12Z" fill="#FAFAFA"/>
<path fill-rule="evenodd" clip-rule="evenodd" d="M15.2426 12.4244C15.0083 12.6587 14.6284 12.6587 14.3941 12.4244L11.2426 9.2729C11.0083 9.03858 11.0083 8.65868 11.2426 8.42437C11.4769 8.19005 11.8568 8.19005 12.0912 8.42437L15.2426 11.5758C15.4769 11.8102 15.4769 12.1901 15.2426 12.4244Z" fill="#FAFAFA"/>
<path fill-rule="evenodd" clip-rule="evenodd" d="M15.2426 11.5759C15.0083 11.3416 14.6284 11.3416 14.3941 11.5759L11.2426 14.7273C11.0083 14.9617 11.0083 15.3416 11.2426 15.5759C11.4769 15.8102 11.8568 15.8102 12.0912 15.5759L15.2426 12.4244C15.4769 12.1901 15.4769 11.8102 15.2426 11.5759Z" fill="#FAFAFA"/>
<path fill-rule="evenodd" clip-rule="evenodd" d="M11.7998 21C11.7998 20.6134 12.1132 20.3 12.4998 20.3L16.6771 20.3C17.8426 20.3 18.8088 19.4338 18.9188 18.2921C19.1003 16.4096 19.2998 13.9032 19.2998 12C19.2998 10.0967 19.1003 7.59031 18.9188 5.70778C18.8088 4.56615 17.8426 3.69995 16.6771 3.69995L12.4998 3.69995C12.1132 3.69995 11.7998 3.38655 11.7998 2.99995C11.7998 2.61335 12.1132 2.29995 12.4998 2.29995L16.6771 2.29995C18.5451 2.29995 20.1313 3.69554 20.3124 5.57342C20.4944 7.46137 20.6998 10.0248 20.6998 12C20.6998 13.9751 20.4944 16.5385 20.3124 18.4265C20.1313 20.3044 18.5451 21.7 16.6771 21.7L12.4998 21.7C12.1132 21.7 11.7998 21.3866 11.7998 21Z" fill="#FAFAFA"/>
</svg>
